<svg width="1020" height="170" viewBox="0 0 1020 170" fill="none" xmlns="http://www.w3.org/2000/svg">
<g clip-path="url(#clip0)">
<path d="M0 3.00001C0 1.34315 1.34315 0 3 0H289V170H3C1.34315 170 0 168.657 0 167V3.00001Z" fill="#00AAFC"/>
<path d="M289 0H1017C1018.66 0 1020 1.34315 1020 3V167C1020 168.657 1018.66 170 1017 170H289V0Z" fill="#122E4B"/>
<path d="M398.385 56.9492V103.934C398.353 110.452 396.282 115.784 392.17 119.928C388.091 124.073 382.546 126.399 375.535 126.905L373.097 127C365.48 127 359.409 124.959 354.884 120.878C350.358 116.796 348.064 111.18 348 104.029V56.9492H357.083V103.745C357.083 108.744 358.469 112.635 361.242 115.42C364.014 118.172 367.966 119.549 373.097 119.549C378.292 119.549 382.259 118.172 385 115.42C387.773 112.667 389.159 108.791 389.159 103.792V56.9492H398.385Z" fill="black"/>
<path d="M458.109 95.5341H428.901V126.051H419.723V56.9492H462.841V64.4479H428.901V88.0829H458.109V95.5341Z" fill="black"/>
<path d="M506.216 98.0969H489.867V126.051H480.641V56.9492H503.683C511.522 56.9492 517.546 58.721 521.752 62.2647C525.991 65.8084 528.11 70.9657 528.11 77.7366C528.11 82.0397 526.931 85.789 524.573 88.9846C522.246 92.1803 518.996 94.5691 514.821 96.1511L531.17 125.481V126.051H521.322L506.216 98.0969ZM489.867 90.6457H503.97C508.527 90.6457 512.144 89.475 514.821 87.1337C517.53 84.7923 518.884 81.66 518.884 77.7366C518.884 73.4652 517.594 70.1905 515.012 67.9124C512.463 65.6344 508.766 64.4795 503.922 64.4479H489.867V90.6457Z" fill="black"/>
<path d="M557.049 98.9987V126.051H547.87V56.9492H573.541C581.158 56.9492 587.117 58.8792 591.419 62.7393C595.754 66.5994 597.921 71.7092 597.921 78.0689C597.921 84.7765 595.801 89.9496 591.563 93.5882C587.356 97.1952 581.317 98.9987 573.445 98.9987H557.049ZM557.049 91.5475H573.541C578.449 91.5475 582.209 90.4084 584.823 88.1303C587.436 85.8206 588.742 82.4984 588.742 78.1638C588.742 74.0506 587.436 70.76 584.823 68.2921C582.209 65.8242 578.624 64.5428 574.067 64.4479H557.049V91.5475Z" fill="black"/>
<path d="M655.828 94.1103H625.664V118.6H660.704V126.051H616.486V56.9492H660.226V64.4479H625.664V86.6591H655.828V94.1103Z" fill="black"/>
<path d="M696 100.28H672.672V93.1136H696V100.28Z" fill="black"/>
<path d="M712.892 126.051V56.9492H732.539C738.594 56.9492 743.948 58.2781 748.601 60.9358C753.254 63.5936 756.839 67.3746 759.357 72.2787C761.907 77.1829 763.197 82.8148 763.229 89.1745V93.5882C763.229 100.106 761.954 105.817 759.405 110.721C756.887 115.625 753.27 119.391 748.553 122.017C743.869 124.643 738.403 125.988 732.157 126.051H712.892ZM722.07 64.4479V118.6H731.727C738.802 118.6 744.299 116.416 748.219 112.05C752.171 107.684 754.146 101.467 754.146 93.3984V89.3643C754.146 81.5176 752.282 75.4269 748.553 71.0922C744.857 66.7259 739.598 64.5111 732.778 64.4479H722.07Z" fill="black"/>
<path d="M823.335 94.1103H793.171V118.6H828.211V126.051H783.993V56.9492H827.733V64.4479H793.171V86.6591H823.335V94.1103Z" fill="black"/>
<path d="M869.531 113.949L889.417 56.9492H899.456L873.642 126.051H865.515L839.749 56.9492H849.74L869.531 113.949Z" fill="black"/>
<path d="M936.186 95.2493C928.314 93.0029 922.578 90.2502 918.977 86.9913C915.407 83.7008 913.623 79.6508 913.623 74.8416C913.623 69.3995 915.806 64.9066 920.172 61.363C924.57 57.7877 930.274 56 937.286 56C942.066 56 946.32 56.9176 950.049 58.7527C953.81 60.5878 956.71 63.119 958.749 66.3463C960.821 69.5735 961.857 73.1014 961.857 76.9298H952.63C952.63 72.7533 951.292 69.4786 948.615 67.1056C945.938 64.701 942.162 63.4987 937.286 63.4987C932.76 63.4987 929.223 64.4953 926.673 66.4886C924.156 68.4503 922.897 71.1872 922.897 74.6992C922.897 77.5152 924.092 79.904 926.482 81.8656C928.904 83.7957 932.999 85.5675 938.767 87.1812C944.568 88.7948 949.093 90.5824 952.344 92.5441C955.626 94.4742 958.048 96.7364 959.61 99.3309C961.203 101.925 962 104.979 962 108.491C962 114.091 959.801 118.584 955.403 121.969C951.005 125.323 945.125 127 937.764 127C932.983 127 928.522 126.098 924.379 124.295C920.236 122.46 917.033 119.96 914.77 116.796C912.539 113.632 911.424 110.041 911.424 106.023H920.65C920.65 110.199 922.196 113.506 925.287 115.942C928.41 118.346 932.569 119.549 937.764 119.549C942.608 119.549 946.32 118.568 948.902 116.606C951.483 114.645 952.774 111.971 952.774 108.586C952.774 105.2 951.579 102.59 949.189 100.755C946.798 98.8879 942.464 97.0528 936.186 95.2493Z" fill="black"/>
<path d="M398.385 47.9626V95.6096C398.353 102.219 396.282 107.626 392.17 111.829C388.091 116.032 382.546 118.39 375.535 118.904L373.097 119C365.48 119 359.409 116.93 354.884 112.791C350.358 108.652 348.064 102.957 348 95.7059V47.9626H357.083V95.4171C357.083 100.487 358.469 104.433 361.242 107.257C364.014 110.048 367.966 111.444 373.097 111.444C378.292 111.444 382.259 110.048 385 107.257C387.773 104.465 389.159 100.535 389.159 95.4652V47.9626H398.385Z" fill="white"/>
<path d="M458.109 87.0909H428.901V118.037H419.723V47.9626H462.841V55.5668H428.901V79.5348H458.109V87.0909Z" fill="white"/>
<path d="M506.216 89.6898H489.867V118.037H480.641V47.9626H503.683C511.522 47.9626 517.546 49.7594 521.752 53.3529C525.991 56.9465 528.11 62.1765 528.11 69.0428C528.11 73.4064 526.931 77.2086 524.573 80.4492C522.246 83.6898 518.996 86.1123 514.821 87.7166L531.17 117.46V118.037H521.322L506.216 89.6898ZM489.867 82.1337H503.97C508.527 82.1337 512.144 80.9465 514.821 78.5722C517.53 76.1979 518.884 73.0214 518.884 69.0428C518.884 64.7112 517.594 61.3904 515.012 59.0802C512.463 56.7701 508.766 55.5989 503.922 55.5668H489.867V82.1337Z" fill="white"/>
<path d="M557.049 90.6043V118.037H547.87V47.9626H573.541C581.158 47.9626 587.117 49.9198 591.419 53.8342C595.754 57.7487 597.921 62.9305 597.921 69.3797C597.921 76.1818 595.801 81.4278 591.563 85.1176C587.356 88.7754 581.317 90.6043 573.445 90.6043H557.049ZM557.049 83.0481H573.541C578.449 83.0481 582.209 81.893 584.823 79.5829C587.436 77.2406 588.742 73.8717 588.742 69.4759C588.742 65.3048 587.436 61.9679 584.823 59.4652C582.209 56.9626 578.624 55.6631 574.067 55.5668H557.049V83.0481Z" fill="white"/>
<path d="M655.828 85.6471H625.664V110.481H660.704V118.037H616.486V47.9626H660.226V55.5668H625.664V78.0909H655.828V85.6471Z" fill="white"/>
<path d="M696 91.9037H672.672V84.6364H696V91.9037Z" fill="white"/>
<path d="M712.892 118.037V47.9626H732.539C738.594 47.9626 743.948 49.3102 748.601 52.0053C753.254 54.7005 756.839 58.5348 759.357 63.508C761.907 68.4813 763.197 74.1925 763.229 80.6417V85.1176C763.229 91.7273 761.954 97.5187 759.405 102.492C756.887 107.465 753.27 111.283 748.553 113.947C743.869 116.61 738.403 117.973 732.157 118.037H712.892ZM722.07 55.5668V110.481H731.727C738.802 110.481 744.299 108.267 748.219 103.84C752.171 99.4118 754.146 93.1069 754.146 84.9251V80.8342C754.146 72.877 752.282 66.7005 748.553 62.3048C744.857 57.877 739.598 55.631 732.778 55.5668H722.07Z" fill="white"/>
<path d="M823.335 85.6471H793.171V110.481H828.211V118.037H783.993V47.9626H827.733V55.5668H793.171V78.0909H823.335V85.6471Z" fill="white"/>
<path d="M869.531 105.765L889.417 47.9626H899.456L873.642 118.037H865.515L839.749 47.9626H849.74L869.531 105.765Z" fill="white"/>
<path d="M936.186 86.8021C928.314 84.5241 922.578 81.7326 918.977 78.4278C915.407 75.0909 913.623 70.984 913.623 66.107C913.623 60.5882 915.806 56.0321 920.172 52.4385C924.57 48.8128 930.274 47 937.286 47C942.066 47 946.32 47.9305 950.049 49.7914C953.81 51.6524 956.71 54.2193 958.749 57.492C960.821 60.7647 961.857 64.3422 961.857 68.2246H952.63C952.63 63.9893 951.292 60.6684 948.615 58.262C945.938 55.8235 942.162 54.6043 937.286 54.6043C932.76 54.6043 929.223 55.615 926.673 57.6364C924.156 59.6257 922.897 62.4011 922.897 65.9626C922.897 68.8182 924.092 71.2406 926.482 73.2299C928.904 75.1872 932.999 76.984 938.767 78.6203C944.568 80.2567 949.093 82.0695 952.344 84.0588C955.626 86.016 958.048 88.3102 959.61 90.9412C961.203 93.5722 962 96.6684 962 100.23C962 105.909 959.801 110.465 955.403 113.898C951.005 117.299 945.125 119 937.764 119C932.983 119 928.522 118.086 924.379 116.257C920.236 114.396 917.033 111.861 914.77 108.652C912.539 105.444 911.424 101.802 911.424 97.7273H920.65C920.65 101.963 922.196 105.316 925.287 107.786C928.41 110.225 932.569 111.444 937.764 111.444C942.608 111.444 946.32 110.449 948.902 108.46C951.483 106.471 952.774 103.759 952.774 100.326C952.774 96.893 951.579 94.246 949.189 92.385C946.798 90.492 942.464 88.631 936.186 86.8021Z" fill="white"/>
<path d="M241.083 144.076C239.975 144.119 239.04 143.27 238.983 142.162L236.277 84.5167C236.22 83.4231 237.069 82.4733 238.177 82.4302C249.775 81.8834 259.617 90.8337 260.164 102.432L261.085 122.088C261.632 133.686 252.667 143.529 241.083 144.076Z" fill="white"/>
<path d="M239.169 82.8331C238.853 82.8331 238.522 82.8475 238.191 82.8619C237.327 82.9051 236.666 83.639 236.694 84.5024L239.414 142.147C239.457 143.011 240.191 143.673 241.054 143.644C252.393 143.112 261.186 133.442 260.653 122.103L259.732 102.446C259.214 91.4382 250.091 82.8331 239.169 82.8331ZM240.982 144.507C239.702 144.507 238.623 143.486 238.551 142.191L235.845 84.5455C235.773 83.2073 236.809 82.0561 238.162 81.9986C249.976 81.4374 260.034 90.6036 260.581 102.418L261.517 122.074C261.79 127.787 259.804 133.269 255.948 137.514C252.091 141.745 246.825 144.234 241.098 144.493C241.069 144.507 241.026 144.507 240.982 144.507Z" fill="#371A45"/>
<path d="M242.666 141.514C243.458 137.974 244.048 134.377 244.407 130.751C244.537 129.657 244.666 128.563 244.767 127.47C250.609 126.261 255.516 122.664 258.48 117.771L258.696 122.203C259.142 131.888 252.091 140.205 242.666 141.514Z" fill="#B9AFBE"/>
<path d="M238.681 84.8044L241.357 141.658C251.43 140.967 259.171 132.319 258.697 122.203L257.761 102.547C257.286 92.4166 248.753 84.531 238.681 84.8044ZM240.983 146.464C238.652 146.464 236.709 144.622 236.594 142.277L233.874 84.6318C233.759 82.2143 235.644 80.1422 238.062 80.0414C250.955 79.4227 261.949 89.4235 262.553 102.317L263.474 121.973C264.078 134.866 254.092 145.86 241.199 146.464C241.127 146.464 241.055 146.464 240.983 146.464Z" fill="#14243D"/>
<path d="M47.916 91.395C49.024 91.3375 49.9594 92.1864 50.0169 93.2944L52.7366 150.94C52.7797 152.033 51.9307 152.983 50.8227 153.026C39.2247 153.573 29.3821 144.622 28.8497 133.024L27.9144 113.368C27.3676 101.77 36.3323 91.9418 47.916 91.395Z" fill="white"/>
<path d="M47.9448 91.8122C36.6058 92.3446 27.8137 102.014 28.3461 113.354L29.267 133.01C29.8138 144.349 39.4549 153.127 50.8084 152.594C51.6718 152.565 52.3481 151.817 52.3049 150.954L49.5853 93.3087C49.5421 92.4453 48.7938 91.769 47.9448 91.8122ZM49.8299 153.486C38.462 153.486 28.9505 144.522 28.418 133.039L27.4827 113.382C27.2237 107.67 29.1951 102.187 33.0515 97.9422C36.908 93.7116 42.1746 91.2222 47.9017 90.9632C49.2543 90.8912 50.3911 91.9417 50.4486 93.2799L53.1539 150.911C53.2259 152.249 52.1898 153.4 50.8516 153.458C50.5062 153.472 50.1608 153.486 49.8299 153.486Z" fill="#371A45"/>
<path d="M49.3125 150.652C39.6714 150.378 31.6995 142.694 31.2391 132.909L31.0376 128.65C34.5631 132.866 39.7146 135.672 45.4704 136.132C46.3914 141.111 47.6865 145.961 49.3125 150.652Z" fill="#B9AFBE"/>
<path d="M47.643 93.798C37.5702 94.4887 29.8286 103.137 30.3178 113.253L31.2388 132.909C31.7136 143.04 40.2323 150.911 50.3195 150.652L47.643 93.798ZM49.8302 155.443C37.4119 155.443 27.037 145.658 26.447 133.139L25.526 113.483C24.9217 100.59 34.9081 89.5962 47.8157 88.9919C50.2331 88.8912 52.2909 90.7618 52.406 93.1793L55.1256 150.824C55.2407 153.242 53.3557 155.314 50.9382 155.429C50.5641 155.443 50.19 155.443 49.8302 155.443Z" fill="#14243D"/>
<path d="M242.81 120.088C241.515 174.366 196.446 217.333 142.154 216.038C87.8618 214.729 44.9086 169.66 46.2037 115.382C47.5132 61.0901 92.5673 18.1225 146.86 19.4176C201.152 20.7271 244.119 65.7955 242.81 120.088Z" fill="white"/>
<path d="M144.457 19.8207C119.189 19.8207 95.3165 29.3755 76.9697 46.859C58.0329 64.9036 47.2694 89.2366 46.6362 115.383C45.3556 169.358 88.208 214.312 142.169 215.607C196.131 216.887 241.098 174.035 242.394 120.074L242.811 120.088L242.394 120.074C243.012 93.9276 233.414 69.1054 215.37 50.183C197.339 31.2462 172.992 20.4827 146.86 19.8495C146.055 19.8351 145.249 19.8207 144.457 19.8207ZM144.544 216.485C143.752 216.485 142.961 216.485 142.155 216.456C87.7044 215.161 44.4778 169.804 45.7729 115.368C46.406 88.992 57.2702 64.4432 76.3653 46.2402C95.4604 28.0373 120.499 18.3674 146.875 19.0005C173.251 19.6193 197.8 30.4835 216.003 49.5786C234.206 68.6737 243.876 93.7118 243.242 120.088C241.962 173.733 197.915 216.485 144.544 216.485Z" fill="#371A45"/>
<path d="M242.811 120.088H242.825H242.811ZM144.457 21.792C119.707 21.792 96.2948 31.1453 78.3221 48.2834C59.7738 65.9684 49.2118 89.8121 48.6074 115.44C47.3411 168.322 89.3302 212.369 142.212 213.635C195.094 214.902 239.156 172.912 240.422 120.03C241.688 67.1339 199.699 23.0871 146.803 21.8208C146.026 21.8064 145.234 21.792 144.457 21.792ZM144.543 218.456C143.738 218.456 142.917 218.441 142.097 218.427C86.5818 217.103 42.4918 170.84 43.8157 115.325C45.1395 59.7952 91.3736 15.7052 146.918 17.029C173.826 17.6766 198.865 28.7566 217.427 48.2259C235.99 67.6951 245.861 93.2368 245.214 120.146C243.904 174.841 198.98 218.456 144.543 218.456Z" fill="#14243D"/>
<path d="M242.436 122.592C242.278 141.845 235.875 159.645 225.053 174.337C216.952 185.345 183.856 204.44 143.205 204.455C105.504 204.455 71.386 184.064 63.4717 172.912C52.9241 158.034 46.8372 140.118 47.0099 120.879C47.456 69.9543 91.3877 49.2331 145.363 49.708C199.325 50.1828 242.897 71.681 242.436 122.592Z" fill="#192E4D"/>
<path d="M242.436 122.592H242.45H242.436ZM143.55 52.0967C116.411 52.0967 93.5745 57.5935 77.4149 68.0261C59.0393 79.8975 49.614 97.6832 49.3982 120.894C49.2399 139.01 54.7799 156.523 65.4283 171.517C72.9973 182.179 106.367 202.052 143.19 202.052H143.205C184.014 202.052 215.887 182.755 223.125 172.912C234.032 158.091 239.889 140.694 240.047 122.577C240.594 59.7376 173.998 52.3557 145.334 52.1111C144.744 52.0967 144.14 52.0967 143.55 52.0967ZM143.19 206.843C104.194 206.843 69.8171 185.978 61.5287 174.294C50.2903 158.465 44.4481 139.974 44.6064 120.851C44.8366 95.9277 54.9958 76.8038 74.8104 64.0113C92.1211 52.8306 116.526 47.0459 145.377 47.3193C174.243 47.5639 198.533 53.7659 215.642 65.2488C235.241 78.401 245.055 97.6976 244.839 122.621C244.666 141.744 238.493 160.12 226.981 175.747C219.009 186.597 186.244 206.843 143.205 206.843H143.19Z" fill="#14243D"/>
<path d="M209.225 132.665C208.649 132.665 208.074 132.607 207.484 132.492C200.648 131.197 196.562 122.491 198.361 113.037C200.001 104.403 206.001 98.1438 212.261 98.1438C212.837 98.1438 213.427 98.2013 214.002 98.3021C219.528 99.3525 223.255 105.252 223.542 112.447C222.765 116.706 221.744 120.879 220.492 124.952C217.758 129.657 213.556 132.665 209.225 132.665Z" fill="#C3BAC7"/>
<path d="M194.346 157.616C193.713 157.616 193.065 157.516 192.432 157.3C188.849 156.091 187.079 151.716 188.504 147.529C189.669 144.09 192.633 141.86 195.641 141.86C196.288 141.86 196.922 141.96 197.555 142.162C201.138 143.385 202.908 147.759 201.483 151.932C200.318 155.371 197.353 157.616 194.346 157.616Z" fill="#C3BAC7"/>
<path d="M208.232 184.856H163.293C183.381 176.798 197.814 166.466 203.282 159.041C210.851 148.767 216.722 137.284 220.492 124.952C221.701 122.851 222.622 120.419 223.125 117.757C223.471 115.944 223.6 114.159 223.543 112.447C224.679 106.245 225.284 99.8848 225.341 93.3806C225.399 88.3011 225.082 83.4517 224.463 78.8327C233.989 89.0781 240.22 103.18 240.048 122.577C239.889 140.694 234.033 158.091 223.125 172.912C220.708 176.193 215.556 180.539 208.232 184.856Z" fill="#14243D"/>
<path d="M212.807 184.856H208.231C215.556 180.539 220.707 176.193 223.125 172.912C234.032 158.091 239.889 140.694 240.047 122.577C240.22 103.18 233.989 89.0782 224.463 78.8327C224.29 77.5089 224.089 76.2138 223.859 74.9331C235.701 86.4305 242.623 102.144 242.436 122.592C242.277 141.845 235.86 159.645 225.053 174.337C222.794 177.402 218.592 181.115 212.807 184.856Z" fill="#0F1B2E"/>
<path d="M220.492 124.952C221.743 120.879 222.765 116.706 223.542 112.447C223.6 114.159 223.47 115.944 223.125 117.757C222.621 120.419 221.7 122.851 220.492 124.952Z" fill="#858290"/>
<path d="M234.421 80.2717C233.889 80.2717 233.356 80.0846 232.91 79.7248L232.651 79.509L232.45 79.2356C216.074 55.838 184.158 42.2109 144.889 41.8656C105.418 41.5058 73.2569 55.0034 56.7375 78.8759L56.608 79.0341C55.7734 80.0558 54.2625 80.1997 53.2408 79.3651C52.2479 78.5449 52.0753 77.1059 52.8379 76.0843C70.2926 50.9311 103.878 36.6997 144.917 37.0738C185.741 37.4336 219.053 51.7801 236.35 76.444C236.983 77.3074 236.983 78.5305 236.278 79.3939C235.803 79.9695 235.112 80.2717 234.421 80.2717Z" fill="#14243D"/>
<path d="M68.6809 151.357C68.6809 151.357 53.3559 100.993 80.61 81.2071C100.396 66.8462 126.355 63.1337 138.73 63.1337C143.392 63.1337 146.126 63.6661 145.867 64.3424C145.867 64.3424 102.655 74.4008 85.4881 108.346C72.2496 134.507 68.6809 151.357 68.6809 151.357Z" fill="#C3BAC7"/>
</g>
<defs>
<clipPath id="clip0">
<rect width="1020" height="170" fill="white"/>
</clipPath>
</defs>
</svg>
